{
  "accessors": [
    {
      "bufferView": 1,
      "componentType": 5126,
      "count": 896,
      "max": [
        0.77446997165679932,
        0.49375998973846436,
        1.5888799428939819
      ],
      "min": [
        -0.43509000539779663,
        -0.49847999215126038,
        0
      ],
      "type": "VEC3"
    },
    {
      "bufferView": 1,
      "byteOffset": 10752,
      "componentType": 5126,
      "count": 896,
      "max": [
        0.98527109622955322,
        0.99917763471603394,
        0.99570536613464355
      ],
      "min": [
        -0.99799144268035889,
        -0.99214518070220947,
        -0.93840676546096802
      ],
      "type": "VEC3"
    },
    {
      "bufferView": 0,
      "componentType": 5125,
      "count": 1026,
      "max": [
        895
      ],
      "min": [
        0
      ],
      "type": "SCALAR"
    },
    {
      "bufferView": 1,
      "byteOffset": 21504,
      "componentType": 5126,
      "count": 594,
      "max": [
        1.0786199569702148,
        1.091670036315918,
        0.28187999129295349
      ],
      "min": [
        -1.0730199813842773,
        -0.99673998355865479,
        -0.90697997808456421
      ],
      "type": "VEC3"
    },
    {
      "bufferView": 1,
      "byteOffset": 28632,
      "componentType": 5126,
      "count": 594,
      "max": [
        0.97612965106964111,
        0.99105930328369141,
        0.9999157190322876
      ],
      "min": [
        -0.97167098522186279,
        -0.96074223518371582,
        -0.99935752153396606
      ],
      "type": "VEC3"
    },
    {
      "bufferView": 0,
      "byteOffset": 4104,
      "componentType": 5125,
      "count": 690,
      "max": [
        593
      ],
      "min": [
        0
      ],
      "type": "SCALAR"
    }
  ],
  "asset": {
    "extras": {
      "author": "Daydream (https://sketchfab.com/Daydraem)",
      "license": "CC-BY-4.0 (http://creativecommons.org/licenses/by/4.0/)",
      "source": "https://sketchfab.com/models/8e3e515fd52b4a1b8195fad11ff14500",
      "title": "Low poly tree"
    },
    "generator": "Sketchfab-3.18.7",
    "version": "2.0"
  },
  "bufferViews": [
    {
      "buffer": 0,
      "byteLength": 6864,
      "byteOffset": 0,
      "name": "floatBufferViews",
      "target": 34963
    },
    {
      "buffer": 0,
      "byteLength": 35760,
      "byteOffset": 6864,
      "byteStride": 12,
      "name": "floatBufferViews",
      "target": 34962
    }
  ],
  "buffers": [
    {
      "byteLength": 42624,
      "uri": "scene.bin"
    }
  ],
  "extensionsRequired": [
    "KHR_materials_pbrSpecularGlossiness"
  ],
  "extensionsUsed": [
    "KHR_materials_pbrSpecularGlossiness"
  ],
  "materials": [
    {
      "doubleSided": true,
      "emissiveFactor": [
        0,
        0,
        0
      ],
      "extensions": {
        "KHR_materials_pbrSpecularGlossiness": {
          "diffuseFactor": [
            0.10702310299999999,
            0.1946178304,
            0.027320891600000001,
            1
          ],
          "glossinessFactor": 0.10194359760000005,
          "specularFactor": [
            0.10702310299999999,
            0.1946178304,
            0.027320891600000001
          ]
        }
      },
      "name": "Material.003"
    },
    {
      "doubleSided": true,
      "emissiveFactor": [
        0,
        0,
        0
      ],
      "extensions": {
        "KHR_materials_pbrSpecularGlossiness": {
          "diffuseFactor": [
            0.024157628399999999,
            0.016807377299999999,
            0.0137020862,
            1
          ],
          "glossinessFactor": 0.40000000000000002,
          "specularFactor": [
            0.050000000000000003,
            0.050000000000000003,
            0.050000000000000003
          ]
        }
      },
      "name": "Material"
    }
  ],
  "meshes": [
    {
      "name": "Cube_0",
      "primitives": [
        {
          "attributes": {
            "NORMAL": 1,
            "POSITION": 0
          },
          "indices": 2,
          "material": 1,
          "mode": 4
        }
      ]
    },
    {
      "name": "Icosphere_0",
      "primitives": [
        {
          "attributes": {
            "NORMAL": 4,
            "POSITION": 3
          },
          "indices": 5,
          "material": 0,
          "mode": 4
        }
      ]
    }
  ],
  "nodes": [
    {
      "children": [
        1
      ],
      "name": "RootNode (gltf orientation matrix)",
      "rotation": [
        -0.70710678118654746,
        -0,
        -0,
        0.70710678118654757
      ]
    },
    {
      "children": [
        2
      ],
      "name": "RootNode (model correction matrix)"
    },
    {
      "children": [
        3,
        5,
        7,
        9,
        11
      ],
      "name": "Root"
    },
    {
      "children": [
        4
      ],
      "matrix": [
        -0.29086000000000006,
        0.95517000000000007,
        -0.05519000000000001,
        0,
        -0.77110000000000001,
        -0.19988000000000003,
        0.60452000000000006,
        0,
        0.56639000000000006,
        0.21839000000000003,
        0.7946700000000001,
        0,
        2.2154799999999999,
        -2.3092299999999999,
        3.1944900000000001,
        1
      ],
      "name": "Lamp"
    },
    {
      "name": "Lamp"
    },
    {
      "children": [
        6
      ],
      "name": "Cube"
    },
    {
      "mesh": 0,
      "name": "Cube_0"
    },
    {
      "children": [
        8
      ],
      "matrix": [
        1,
        0,
        0,
        0,
        0,
        1,
        0,
        0,
        0,
        0,
        1,
        0,
        0.13326000000000002,
        0.028420000000000004,
        2.3216899999999998,
        1
      ],
      "name": "Icosphere"
    },
    {
      "mesh": 1,
      "name": "Icosphere_0"
    },
    {
      "children": [
        10
      ],
      "matrix": [
        1,
        0,
        0,
        0,
        0,
        1,
        0,
        0,
        0,
        0,
        1,
        0,
        -2.6423900000000002,
        -3.0582399999999996,
        1.1934800000000001,
        1
      ],
      "name": "Sun"
    },
    {
      "name": "Sun"
    },
    {
      "children": [
        12
      ],
      "matrix": [
        1,
        0,
        0,
        0,
        0,
        1,
        0,
        0,
        0,
        0,
        1,
        0,
        -2.7693000000000003,
        0.59717000000000009,
        1.5904100000000001,
        1
      ],
      "name": "Sun.001"
    },
    {
      "name": "Sun.001"
    }
  ],
  "scene": 0,
  "scenes": [
    {
      "name": "OSG_Scene",
      "nodes": [
        0
      ]
    }
  ]
}

